<svg xmlns="http://www.w3.org/2000/svg" viewBox="0 0 1200 720" fill="none">
  <defs>
    <linearGradient id="bg" x1="0" y1="0" x2="1" y2="1">
      <stop offset="0" stop-color="#f8f3eb"/>
      <stop offset="1" stop-color="#efe6d7"/>
    </linearGradient>
  </defs>
  <rect width="1200" height="720" rx="24" fill="url(#bg)"/>
  <rect x="126" y="120" width="948" height="480" rx="22" fill="#fff" stroke="#e3d9ca" stroke-width="2"/>
  <rect x="176" y="188" width="280" height="20" rx="10" fill="#f1e7d8"/>
  <rect x="176" y="228" width="360" height="20" rx="10" fill="#f1e7d8"/>
  <rect x="176" y="290" width="600" height="15" rx="7.5" fill="#f5eee4"/>
  <rect x="176" y="320" width="720" height="15" rx="7.5" fill="#f5eee4"/>
  <rect x="176" y="350" width="680" height="15" rx="7.5" fill="#f5eee4"/>
  <rect x="176" y="380" width="640" height="15" rx="7.5" fill="#f5eee4"/>
  <rect x="176" y="420" width="190" height="46" rx="23" fill="#e5524c"/>
  <text x="271" y="449" text-anchor="middle" font-family="IBM Plex Sans, Segoe UI, sans-serif" font-size="20" font-weight="700" fill="#ffffff">Send</text>
  <g transform="translate(845 172)">
    <circle cx="120" cy="120" r="104" fill="#f8f2e8" stroke="#e5dccf" stroke-width="2"/>
    <path d="M58 95h124a10 10 0 0 1 10 10v70a10 10 0 0 1-10 10H58a10 10 0 0 1-10-10v-70a10 10 0 0 1 10-10Z" fill="#fff" stroke="#dccfbf" stroke-width="2"/>
    <path d="m49 106 71 48 71-48" stroke="#e5524c" stroke-width="8" stroke-linecap="round" stroke-linejoin="round"/>
    <path d="M120 41v24M97 53l23-12 23 12" stroke="#4b4f56" stroke-width="6" stroke-linecap="round" stroke-linejoin="round"/>
  </g>
  <text x="176" y="532" font-family="IBM Plex Sans, Segoe UI, sans-serif" font-size="42" font-weight="700" fill="#4b4f56">email_sender</text>
  <text x="176" y="568" font-family="IBM Plex Sans, Segoe UI, sans-serif" font-size="20" font-weight="500" fill="#6a655e">AI-Powered CLI Email Assistant</text>
</svg>
