<svg xmlns="http://www.w3.org/2000/svg" viewBox="0 0 900 700" role="img" aria-labelledby="title desc">
  <title id="title">Software Engineering Workflow</title>
  <desc id="desc">A clean illustration of backend, frontend, and systems components connected in a workflow.</desc>

  <defs>
    <linearGradient id="screen" x1="0" y1="0" x2="1" y2="1">
      <stop offset="0%" stop-color="#ffffff" />
      <stop offset="100%" stop-color="#edf2f7" />
    </linearGradient>
    <linearGradient id="accent" x1="0" y1="0" x2="1" y2="0">
      <stop offset="0%" stop-color="#ef7b71" />
      <stop offset="100%" stop-color="#e5524c" />
    </linearGradient>
  </defs>

  <circle cx="460" cy="330" r="260" fill="#f8fafc" />
  <circle cx="460" cy="330" r="210" fill="#f1f5f9" />

  <rect x="195" y="150" width="530" height="350" rx="24" fill="#1f2937" />
  <rect x="215" y="170" width="490" height="280" rx="14" fill="url(#screen)" />
  <rect x="270" y="500" width="380" height="24" rx="12" fill="#374151" />
  <rect x="350" y="525" width="220" height="18" rx="9" fill="#4b5563" />

  <rect x="250" y="205" width="120" height="70" rx="12" fill="#ffffff" stroke="#d4dce7" />
  <rect x="250" y="287" width="120" height="70" rx="12" fill="#ffffff" stroke="#d4dce7" />
  <rect x="250" y="369" width="120" height="50" rx="12" fill="#ffffff" stroke="#d4dce7" />

  <rect x="395" y="205" width="280" height="90" rx="14" fill="#ffffff" stroke="#d4dce7" />
  <rect x="395" y="309" width="280" height="110" rx="14" fill="#ffffff" stroke="#d4dce7" />

  <rect x="412" y="224" width="110" height="26" rx="13" fill="url(#accent)" />
  <text x="467" y="242" fill="#ffffff" font-size="13" text-anchor="middle" font-family="Arial, sans-serif">BACKEND</text>

  <rect x="530" y="224" width="127" height="26" rx="13" fill="#e8eef5" />
  <text x="593.5" y="242" fill="#4b5563" font-size="13" text-anchor="middle" font-family="Arial, sans-serif">FRONTEND</text>

  <rect x="412" y="257" width="245" height="7" rx="3.5" fill="#e5e7eb" />
  <rect x="412" y="270" width="190" height="7" rx="3.5" fill="#e5e7eb" />

  <rect x="412" y="332" width="90" height="70" rx="10" fill="#fff4f3" stroke="#f5cfcb" />
  <rect x="520" y="332" width="64" height="70" rx="10" fill="#f8fafc" stroke="#d8e0e9" />
  <rect x="594" y="332" width="64" height="70" rx="10" fill="#f8fafc" stroke="#d8e0e9" />

  <text x="457" y="373" fill="#e5524c" font-size="20" text-anchor="middle" font-family="Arial, sans-serif">{ }</text>
  <text x="552" y="373" fill="#6b7280" font-size="18" text-anchor="middle" font-family="Arial, sans-serif">DB</text>
  <text x="626" y="373" fill="#6b7280" font-size="18" text-anchor="middle" font-family="Arial, sans-serif">API</text>

  <circle cx="311" cy="238" r="18" fill="#eef2f7" />
  <circle cx="311" cy="320" r="18" fill="#eef2f7" />
  <circle cx="311" cy="394" r="18" fill="#eef2f7" />
  <text x="311" y="243" fill="#6b7280" font-size="13" text-anchor="middle" font-family="Arial, sans-serif">UI</text>
  <text x="311" y="325" fill="#6b7280" font-size="13" text-anchor="middle" font-family="Arial, sans-serif">UX</text>
  <text x="311" y="399" fill="#6b7280" font-size="13" text-anchor="middle" font-family="Arial, sans-serif">QA</text>

  <path d="M370 238 H392 M370 320 H392 M370 394 H392" stroke="#c7d0db" stroke-width="3" stroke-linecap="round" />
  <path d="M502 367 H520 M584 367 H594" stroke="#c7d0db" stroke-width="3" stroke-linecap="round" />

  <rect x="168" y="230" width="18" height="18" rx="6" fill="#e5524c" />
  <rect x="742" y="306" width="18" height="18" rx="6" fill="#e5524c" />
  <rect x="718" y="196" width="12" height="12" rx="4" fill="#b7c3d1" />
  <rect x="162" y="430" width="12" height="12" rx="4" fill="#b7c3d1" />
</svg>
